<svg id="グループ_32" data-name="グループ 32" xmlns="http://www.w3.org/2000/svg" xmlns:xlink="http://www.w3.org/1999/xlink" width="292.543" height="120.559" viewBox="0 0 292.543 120.559">
  <defs>
    <clipPath id="clip-path">
      <rect id="長方形_1" data-name="長方形 1" width="292.543" height="120.559" fill="none"/>
    </clipPath>
  </defs>
  <g id="グループ_1" data-name="グループ 1" transform="translate(0 0)" clip-path="url(#clip-path)">
    <path id="パス_1" data-name="パス 1" d="M58.308,7.048a.625.625,0,0,1-.722-.656c0-.492.2-.733.722-.733h4.786v-1.1c0-.215,0-.7.694-.7.612,0,.786.235.786.7v1.1h4.759c.238,0,.733.044.733.656,0,.494-.2.733-.733.733h-1.52a12.321,12.321,0,0,1-2.951,5.586,12.41,12.41,0,0,0,4.5,2.227c.348.108.615.21.615.651a.783.783,0,0,1-.733.853,12.535,12.535,0,0,1-5.412-2.759,14.047,14.047,0,0,1-5.4,2.733.786.786,0,0,1-.727-.827c0-.463.306-.574.624-.677a13.735,13.735,0,0,0,4.49-2.2,13.024,13.024,0,0,1-2.888-5.586Zm3.078,0a11.058,11.058,0,0,0,2.465,4.64,10.979,10.979,0,0,0,2.48-4.64Z" transform="translate(29.612 1.981)" fill="#85ba1f"/>
    <path id="パス_2" data-name="パス 2" d="M68.123,9.83h-.907a.558.558,0,0,1-.625-.616.567.567,0,0,1,.625-.639h.907V5.74H67.074a.586.586,0,0,1-.659-.644.569.569,0,0,1,.659-.642h3.183a.572.572,0,0,1,.656.63.577.577,0,0,1-.642.656h-.852V8.575h.716a.544.544,0,0,1,.6.625.552.552,0,0,1-.6.63h-.716v3.225c.117-.024.668-.214.784-.239a1.264,1.264,0,0,1,.294-.068c.4,0,.507.359.507.651,0,.471-.173.578-1.107.883-1,.316-1.6.5-2.226.668a3.465,3.465,0,0,1-.733.133c-.391,0-.6-.4-.6-.775a.512.512,0,0,1,.415-.571c.21-.068,1.174-.282,1.37-.338Zm7.309,1.984H78a.554.554,0,0,1,.642.6.55.55,0,0,1-.642.618h-2.57v1.614h2.81c.359,0,.68.129.68.621,0,.454-.257.644-.68.644H70.95a.57.57,0,0,1-.654-.618c0-.557.324-.647.654-.647h3.159V13.031H71.683a.54.54,0,0,1-.625-.588c0-.536.306-.63.625-.63h2.426V10.507H72.655c-1.066,0-1.49-.385-1.49-1.478v-3.4c0-1.071.385-1.482,1.49-1.482h4.306c1.054,0,1.478.372,1.478,1.482v3.4c0,1.049-.369,1.478-1.478,1.478H75.432ZM74.138,6.82V5.349H72.9c-.333,0-.468.171-.468.48v.99Zm0,1.066h-1.71v.986c0,.316.147.478.468.478h1.242ZM75.416,6.82h1.735v-.99a.421.421,0,0,0-.471-.48H75.416Zm0,1.066V9.35H76.68c.389,0,.471-.226.471-.478V7.886Z" transform="translate(34.112 2.134)" fill="#85ba1f"/>
    <path id="パス_3" data-name="パス 3" d="M80.187,12.842a2.626,2.626,0,0,1-2.229,1.6c-1.587,0-2.617-1.654-2.617-3.855,0-3.916,2.9-6.157,6.335-6.157,4.443,0,5.665,3.106,5.665,5.441a5.129,5.129,0,0,1-2.677,4.743,7.247,7.247,0,0,1-2.975.878.729.729,0,0,1-.775-.772c0-.586.418-.654.962-.719,1-.133,3.907-.6,3.907-4.16,0-1.76-.815-3.867-3.651-4.013a19.059,19.059,0,0,1-1.944,7.012m-1.164-6.4a4.708,4.708,0,0,0-2.241,4.172c0,1.423.628,2.253,1.23,2.253s1-.68,1.4-1.76a21.483,21.483,0,0,0,1.237-5.244,5.308,5.308,0,0,0-1.626.578" transform="translate(38.742 2.279)" fill="#85ba1f"/>
    <path id="パス_4" data-name="パス 4" d="M86.888,4.908a1.5,1.5,0,0,1-.014.279,27.32,27.32,0,0,0-.509,5.345,24.341,24.341,0,0,0,.257,3.68c.024.185.092.613.092.772,0,.492-.309.668-.737.668a.681.681,0,0,1-.731-.613,27.506,27.506,0,0,1-.33-4.617,30.429,30.429,0,0,1,.489-5.569c.068-.239.176-.681.895-.586.509.064.588.347.588.642m5.1.064a.659.659,0,0,1,.745-.787c.737,0,.763.48.763.775l.023,1.628c.268-.014,1.705-.082,1.87-.082a.643.643,0,0,1,.745.707c0,.6-.415.668-.548.677-.171.03-1.72.082-2.052.1l.056,3.169a10.3,10.3,0,0,1,2.25,1.616c.4.36.506.609.506.839a.815.815,0,0,1-.747.824c-.282,0-.321-.051-.934-.69a6.369,6.369,0,0,0-1.146-.96,4.205,4.205,0,0,1-.214,1.705c-.491,1.08-1.934,1.187-2.532,1.187-2.262,0-3.119-1.255-3.119-2.562,0-1.623,1.319-2.583,3.148-2.583a4.962,4.962,0,0,1,1.32.173L92.06,8.039c-.533.026-2.509.064-3.639.064-.245,0-.777,0-.777-.706,0-.69.48-.69.922-.69,1.143-.012,2.479-.03,3.465-.068Zm-1.174,6.8c-.506,0-1.85.133-1.85,1.375,0,1.143,1.143,1.29,1.707,1.29.371,0,1.1-.077,1.357-.634a5.171,5.171,0,0,0,.124-1.747,2.95,2.95,0,0,0-1.337-.283" transform="translate(43.665 2.151)" fill="#85ba1f"/>
    <path id="パス_5" data-name="パス 5" d="M96.17,13.2c.12,0,.613.068.762.082a11.505,11.505,0,0,0,1.239.064,7.688,7.688,0,0,0,3.478-.637,3.256,3.256,0,0,0,1.987-3.171c0-2.2-1.293-3.23-3.572-3.23a17.1,17.1,0,0,0-5.427,1.2,2.027,2.027,0,0,1-.557.133.774.774,0,0,1-.75-.857c0-.625.329-.715,1.682-1.105a21.084,21.084,0,0,1,5.33-.8c3,0,4.9,1.585,4.9,4.576a4.717,4.717,0,0,1-2.4,4.382,10.453,10.453,0,0,1-4.906.989,11.985,11.985,0,0,1-1.984-.145.676.676,0,0,1-.562-.707c0-.347.077-.775.786-.775" transform="translate(47.991 2.509)" fill="#85ba1f"/>
    <path id="パス_6" data-name="パス 6" d="M107.538,8.677a8.283,8.283,0,0,1,1.387-.117,6.388,6.388,0,0,1,3.589.9,3.367,3.367,0,0,1,1.21,2.707,3.236,3.236,0,0,1-2.456,3.277,7.223,7.223,0,0,1-2.382.335c-.562,0-1.178,0-1.178-.745,0-.625.494-.625.724-.625a6.726,6.726,0,0,0,1.893-.133,2.068,2.068,0,0,0,1.828-2.108c0-2.043-1.787-2.321-3.094-2.321a7.323,7.323,0,0,0-1.52.136v2.1c0,1.32,0,3.667-2.371,3.667a2.766,2.766,0,0,1-2.777-2.841c0-2.462,2.417-3.452,3.708-3.9V7.349c-.451,0-1.652.026-2.041.026a5.083,5.083,0,0,1-1.169-.042c-.138-.026-.4-.189-.4-.651,0-.681.506-.681.854-.681,1.227,0,1.4,0,2.76-.026V4.813c0-.265.017-.762.722-.762.69,0,.718.471.718.762v1.11c.263-.014,1.493-.082,1.654-.082a.635.635,0,0,1,.734.69.584.584,0,0,1-.551.668c-.133.012-1.538.068-1.837.082Zm-1.423,1.7c-.859.335-2.323,1.028-2.323,2.438a1.468,1.468,0,0,0,1.336,1.558c.665,0,.987-.581.987-2.317Zm4.6-5.731c.877,0,3.333,2.134,3.333,3.024a.78.78,0,0,1-.8.719c-.323,0-.372-.068-.827-.694a5.807,5.807,0,0,0-1.958-1.782.878.878,0,0,1-.438-.616.816.816,0,0,1,.171-.412.754.754,0,0,1,.519-.239" transform="translate(52.651 2.083)" fill="#85ba1f"/>
    <path id="パス_7" data-name="パス 7" d="M116.3,8.913a2,2,0,0,1,2.04,2.3c0,.3-.1,1.747-.1,1.881,0,.239,0,1.2,1,1.2,1.534,0,1.841-2.318,1.894-3.389.064-1.131.064-1.263.148-1.422.133-.283.518-.3.637-.3.786,0,.786.586.786.9a15.762,15.762,0,0,1-.145,1.8c-.227,1.6-.906,3.881-3.415,3.881a2.127,2.127,0,0,1-2.332-2.365c0-.279.067-1.5.067-1.756,0-.762-.109-1.345-1.039-1.345-.959,0-2.062,1.092-2.532,2.317a13.818,13.818,0,0,0-.615,2.04c-.16.639-.224.972-.812.972a.723.723,0,0,1-.786-.707,5.535,5.535,0,0,1,.385-1.408c.909-2.815,1.828-5.625,2.827-8.4.239-.663.356-1.01.895-1.01.339,0,.8.239.8.651,0,.227,0,.307-.51,1.532-.079.185-.369.9-.559,1.414-.584,1.6-.651,1.773-.827,2.2a3.084,3.084,0,0,1,2.19-1" transform="translate(57.129 2.116)" fill="#85ba1f"/>
    <path id="パス_8" data-name="パス 8" d="M130.761,7.755a.63.63,0,0,1,.719.707c0,.63-.369.719-.719.719H126.5v5.347h5.038a.688.688,0,1,1,0,1.375H120.313a.618.618,0,0,1-.719-.681.618.618,0,0,1,.719-.694h4.638v-9.9c0-.2,0-.719.719-.719.618,0,.828.209.828.719V7.755Z" transform="translate(61.497 2.007)" fill="#85ba1f"/>
    <path id="パス_9" data-name="パス 9" d="M140.35,14.819a.591.591,0,0,1,.666.644.626.626,0,0,1-.69.689h-6.042a3.8,3.8,0,0,1-3.41-1.435,8.989,8.989,0,0,1-.963,1.089c-.374.377-.477.471-.721.471a.839.839,0,0,1-.783-.857.707.707,0,0,1,.342-.6,11.081,11.081,0,0,0,1.148-.946V10.7c0-.159-.026-.36-.327-.36H129.1a.588.588,0,0,1-.625-.639.612.612,0,0,1,.7-.654h.641c1.119,0,1.385.279,1.385,1.382v2.494a1.66,1.66,0,0,0,.893,1.482,3.765,3.765,0,0,0,1.975.41ZM130.7,5.1a10.863,10.863,0,0,1,.771.81.591.591,0,0,1,.171.415.762.762,0,0,1-.731.733c-.279,0-.426-.159-.772-.557-.191-.2-1.013-1.015-1.186-1.19a.606.606,0,0,1-.2-.424.736.736,0,0,1,.739-.7c.182,0,.306.014,1.213.909m9.1-.359a.538.538,0,1,1,0,1.066h-2.865v.771h3.424a.52.52,0,0,1,.6.544c0,.485-.362.553-.6.553H139.14c-.164.571-.257.878-.309,1.037H140.1a.549.549,0,1,1,0,1.092h-3.162v.815h2.892a.466.466,0,0,1,.545.492c0,.454-.306.522-.545.522h-2.892v.822h3.319a.515.515,0,0,1,.6.55c0,.522-.413.544-.6.544h-3.319v.656c0,.188,0,.591-.681.591s-.694-.363-.694-.591v-.656h-3.29a.51.51,0,0,1-.6-.544c0-.425.253-.55.6-.55h3.29v-.822H132.71a.473.473,0,0,1-.545-.509c0-.4.241-.506.545-.506h2.853V9.807h-3.157c-.188,0-.613,0-.613-.544s.425-.548.613-.548h1.29c-.094-.372-.239-.827-.3-1.037h-1.257a.536.536,0,0,1-.613-.553c0-.424.3-.544.613-.544h3.425V5.811h-2.892a.522.522,0,0,1-.6-.536c0-.453.333-.53.6-.53h2.892V4.41c0-.347.189-.557.639-.557.547,0,.736.185.736.557v.335Zm-2.294,3.97c.082-.253.2-.707.279-1.037h-3.047a8.828,8.828,0,0,1,.3,1.037Z" transform="translate(66.029 1.981)" fill="#85ba1f"/>
    <path id="パス_10" data-name="パス 10" d="M138.311,5.963a.657.657,0,0,1-.75-.706.655.655,0,0,1,.75-.721h9.329c.642,0,1.31.176,1.31,1.068a5.9,5.9,0,0,1-1.281,2.8,6.439,6.439,0,0,1-2.909,2.068A.815.815,0,0,1,144,9.657c0-.321.307-.48.524-.588A4.481,4.481,0,0,0,147.158,6.2c0-.227-.2-.241-.436-.241Zm5.4,2.215a7.815,7.815,0,0,1-2.146,5.74,5.176,5.176,0,0,1-2.508,1.658.813.813,0,0,1-.762-.827c0-.3.244-.472.536-.63a5.531,5.531,0,0,0,3.362-5.253,11.986,11.986,0,0,1,.064-1.305c.065-.386.347-.48.719-.48.734,0,.734.535.734,1.1" transform="translate(70.736 2.333)" fill="#85ba1f"/>
    <path id="パス_11" data-name="パス 11" d="M147.294,7.182a.67.67,0,0,1-.763-.733.67.67,0,0,1,.763-.745h7.751a4.56,4.56,0,0,1,.775.08,1.191,1.191,0,0,1-.133-.574,1.456,1.456,0,0,1,1.448-1.464,1.43,1.43,0,0,1,1.443,1.426A1.469,1.469,0,0,1,157.1,6.625a1.19,1.19,0,0,1-.25-.026,1.744,1.744,0,0,1,.089.681,10.317,10.317,0,0,1-2.161,5.474,9.793,9.793,0,0,1-6,3.216.775.775,0,0,1-.769-.813c0-.51.413-.6.919-.737a8.068,8.068,0,0,0,5.5-3.82,8.3,8.3,0,0,0,.881-3.016c0-.4-.279-.4-.478-.4Zm9.841-2.717a.724.724,0,0,0-.716.719.713.713,0,1,0,1.426,0,.727.727,0,0,0-.71-.719" transform="translate(75.349 1.926)" fill="#85ba1f"/>
    <path id="パス_12" data-name="パス 12" d="M157.74,11.155c0,.309-.065.733-.771.733-.545,0-.8-.209-.8-.733V5.116c0-.318.085-.728.79-.728.533,0,.784.209.784.728Zm6.932-1.04c0,1.3-.1,3.988-3.97,5.162a10.85,10.85,0,0,1-2.866.436.752.752,0,0,1-.853-.771c0-.612.342-.637,1.322-.733,2.249-.214,3.342-.694,4.063-1.614a3.538,3.538,0,0,0,.733-2.429V4.957c0-.291.056-.745.775-.745.574,0,.8.253.8.745Z" transform="translate(80.303 2.166)" fill="#85ba1f"/>
    <path id="パス_13" data-name="パス 13" d="M147.515,99.1H133.379V70.357a5.852,5.852,0,0,0-5.851-5.855H112.6l15.9-38.9a5.853,5.853,0,0,0-10.845-4.408L84.024,103.478a5.855,5.855,0,0,0,10.846,4.412l12.945-31.68h13.857v28.75a5.852,5.852,0,0,0,5.855,5.849h19.988a5.852,5.852,0,1,0,0-11.7" transform="translate(42.984 9.02)" fill="#ea8e00"/>
    <path id="パス_14" data-name="パス 14" d="M148.066,43.74a5.855,5.855,0,0,0,8.283-8.277L143.992,23.108a5.853,5.853,0,0,0-8.277,8.278Zm70.714,57.421H194.626V96.182h19.365a3.805,3.805,0,0,0,0-7.61H194.626V84.653h19.365a3.805,3.805,0,0,0,0-7.61H194.626V73.121h19.365a3.8,3.8,0,0,0,0-7.607h-6.669v-17h6.669a3.805,3.805,0,0,0,0-7.61H194.626V36.987h18.782a4.385,4.385,0,1,0,0-8.77H194.626V19.4a5.852,5.852,0,1,0-11.7,0v8.819H164.131a4.385,4.385,0,0,0,0,8.77h18.791v3.919H163.558a3.805,3.805,0,1,0,0,7.61h6.658v17h-6.658a3.8,3.8,0,1,0,0,7.607h19.364v3.922H163.558a3.805,3.805,0,1,0,0,7.61h19.364v3.919H163.558a3.8,3.8,0,0,0-3.792,3.669L157.933,90.4V55.763a5.855,5.855,0,0,0-5.854-5.851H138.859a5.852,5.852,0,1,0,0,11.7h7.368V90.448l-12.5,12.881a5.855,5.855,0,1,0,8.4,8.156l10.009-10.315,9.977,9.985a5.829,5.829,0,0,0,4.138,1.711H218.78a5.852,5.852,0,0,0,0-11.7m-35.858,0H168.681L163.7,96.182h19.218Zm-1-35.648v-12.3h-7.4l14.259-10.931,14.255,10.931h-7.411v12.3Z" transform="translate(67.915 6.964)" fill="#ea8e00"/>
    <path id="パス_15" data-name="パス 15" d="M5.731,111.863l2.364,2.364,11-10.995-2.365-2.362Zm0-32.283,11,10.992,2.365-2.362-11-10.993Zm9.82,14.47H0v3.342H15.551Zm89.56-30.413a6.682,6.682,0,0,0-5.338-2.671H77.9V40.61h24.827a6.691,6.691,0,0,0,0-13.381H77.9V6.688a6.688,6.688,0,1,0-13.377,0h0v20.54H34.638a6.691,6.691,0,0,0,0,13.381H64.525V60.965H30.174a6.69,6.69,0,0,0-6.691,6.693v45.484a6.687,6.687,0,0,0,6.691,6.688H71.215a6.687,6.687,0,0,0,6.69-6.688v-38.8H96.433l9.474,12.594-10.863,24.15a6.691,6.691,0,1,0,12.229,5.436l12.459-27.746a6.687,6.687,0,0,0-.769-6.741Zm-46.22,5.907c1.661,0,3.006,2.347,3.006,5.244s-1.345,5.239-3.006,5.239-3.012-2.349-3.012-5.239,1.354-5.244,3.012-5.244M42.5,69.454c1.663,0,3.007,2.342,3.007,5.239s-1.345,5.242-3.007,5.242-3.007-2.347-3.007-5.242,1.342-5.239,3.007-5.239m26.135,34.607a6.706,6.706,0,0,1-6.7,6.7H39.46a6.706,6.706,0,0,1-6.7-6.7V83.517H68.632Zm62.955-41.573L119.16,46.128A6.689,6.689,0,1,0,108.5,54.216l12.427,16.364a6.69,6.69,0,0,0,10.656-8.092" transform="translate(0 0)" fill="#ea8e00"/>
  </g>
</svg>
