<svg xmlns="http://www.w3.org/2000/svg" xmlns:xlink="http://www.w3.org/1999/xlink" width="66.535" height="66.534" viewBox="0 0 66.535 66.534"><defs><clipPath id="a"><rect width="66.535" height="66.534" transform="translate(0 0)" fill="none"/></clipPath></defs><g transform="translate(0 0)" clip-path="url(#a)"><path d="M63.776,33.267A30.509,30.509,0,1,1,33.268,2.759,30.508,30.508,0,0,1,63.776,33.267" fill="#fff"/><path d="M33.268,66.535A33.268,33.268,0,1,1,66.535,33.268,33.306,33.306,0,0,1,33.268,66.535m0-61.017a27.749,27.749,0,1,0,27.75,27.75,27.782,27.782,0,0,0-27.75-27.75" fill="#a4d388"/><path d="M33.268,42.907a2.759,2.759,0,0,1-2.759-2.759V18.819L22.72,24.66a2.759,2.759,0,1,1-3.311-4.414l12.2-9.152A2.758,2.758,0,0,1,36.027,13.3V40.148a2.759,2.759,0,0,1-2.759,2.759" fill="#a4d388"/><path d="M45.672,25.62a2.745,2.745,0,0,1-1.682-.574L31.583,15.487a2.759,2.759,0,0,1,3.368-4.371l12.407,9.559a2.759,2.759,0,0,1-1.686,4.945" fill="#a4d388"/><path d="M14.085,35.451a1.192,1.192,0,0,1-.859-.354,1.142,1.142,0,0,1-.365-.848v-.064a1.245,1.245,0,0,1,1.224-1.223h9.141a1.243,1.243,0,0,1,1.222,1.223v.064a1.141,1.141,0,0,1-.364.848,1.193,1.193,0,0,1-.858.354H20.351c-.115,0-.173.064-.173.193V47.4a1.245,1.245,0,0,1-1.223,1.223h-.6A1.245,1.245,0,0,1,17.132,47.4V35.644c0-.129-.058-.193-.173-.193Z" fill="#ea8e00"/><path d="M38.708,46.717a6.691,6.691,0,0,1-5.225,2.124,6.691,6.691,0,0,1-5.225-2.124,8.51,8.51,0,0,1-1.921-5.922,8.51,8.51,0,0,1,1.921-5.922,6.688,6.688,0,0,1,5.225-2.125,6.688,6.688,0,0,1,5.225,2.125,8.515,8.515,0,0,1,1.92,5.922,8.515,8.515,0,0,1-1.92,5.922M37.56,40.795q0-5.578-4.077-5.579t-4.077,5.579q0,5.579,4.077,5.579t4.077-5.579" fill="#ea8e00"/><path d="M44.255,48.626a1.139,1.139,0,0,1-.848-.364,1.2,1.2,0,0,1-.354-.859V34.292a1.4,1.4,0,0,1,.343-.923,1.221,1.221,0,0,1,.859-.45q1.824-.172,3.519-.172A7.675,7.675,0,0,1,52.6,34.024a4.443,4.443,0,0,1,1.609,3.7,5.127,5.127,0,0,1-1.555,4.056,6.767,6.767,0,0,1-4.6,1.374q-.709,0-1.867-.086a.152.152,0,0,0-.172.172V47.4a1.245,1.245,0,0,1-1.223,1.223Zm1.759-13.218v5.171a.192.192,0,0,0,.172.194,12.08,12.08,0,0,0,1.588.107,4.037,4.037,0,0,0,2.65-.762,2.678,2.678,0,0,0,.912-2.178q0-2.853-3.562-2.854a12.086,12.086,0,0,0-1.588.108.2.2,0,0,0-.172.214" fill="#ea8e00"/></g></svg>